<?xml version="1.0" standalone="no"?>
<!DOCTYPE svg PUBLIC "-//W3C//DTD SVG 20010904//EN"
 "http://www.w3.org/TR/2001/REC-SVG-20010904/DTD/svg10.dtd">
<svg version="1.0" xmlns="http://www.w3.org/2000/svg"
 width="405.000000pt" height="405.000000pt" viewBox="0 0 405.000000 405.000000"
 preserveAspectRatio="xMidYMid meet">
<metadata>
Created by potrace 1.14, written by Peter Selinger 2001-2017
</metadata>
<g transform="translate(0.000000,405.000000) scale(0.100000,-0.100000)"
fill="#000000" stroke="none">
<path d="M2001 3422 c-6 -11 -7 -23 -3 -27 4 -3 3 -6 -3 -5 -40 8 -43 2 -40
-80 2 -44 6 -84 9 -88 7 -11 97 1 96 13 0 6 -16 9 -35 9 -31 -2 -35 1 -35 22
0 13 5 25 10 25 6 1 15 3 20 4 6 1 16 3 23 4 20 2 -15 21 -40 21 -16 0 -23 6
-23 20 0 21 3 23 55 35 27 7 28 8 10 15 -11 4 -23 6 -27 3 -12 -6 -9 12 3 24
7 7 7 13 0 17 -5 4 -15 -2 -20 -12z"/>
<path d="M2355 3399 c-5 -14 -13 -19 -25 -16 -22 6 -27 -6 -35 -71 -3 -26 -8
-57 -10 -69 -6 -26 6 -35 55 -40 52 -6 60 14 10 22 -22 4 -40 10 -40 15 0 26
15 40 41 40 29 0 42 19 14 21 -8 1 -21 2 -27 3 -7 0 -13 10 -13 21 0 16 8 21
38 23 24 2 37 8 34 15 -3 7 -10 11 -16 10 -14 -4 -14 10 0 24 7 7 6 12 -5 16
-9 4 -17 -1 -21 -14z"/>
<path d="M2140 3387 c0 -6 -3 -7 -7 -4 -12 12 -43 -47 -43 -81 0 -22 8 -41 25
-58 21 -21 32 -24 77 -21 l53 3 3 42 c3 39 1 42 -22 42 -16 0 -26 -6 -26 -15
0 -8 5 -15 10 -15 19 0 10 -28 -11 -33 -28 -7 -65 7 -73 28 -22 59 11 101 73
90 40 -7 56 5 29 21 -18 12 -88 12 -88 1z"/>
<path d="M1830 3371 c-18 -15 -24 -31 -21 -57 0 -7 22 -21 47 -33 53 -25 53
-46 1 -46 -23 0 -37 -5 -37 -12 0 -7 3 -13 8 -14 4 0 17 -2 30 -5 32 -6 59 11
64 40 6 29 -14 51 -54 61 -18 5 -28 14 -28 26 0 19 9 23 43 20 9 -1 17 4 17
12 0 22 -48 27 -70 8z"/>
<path d="M1693 3348 c-28 -6 -43 -15 -43 -24 0 -11 6 -14 23 -9 61 18 59 22
30 -59 -15 -41 -24 -78 -20 -82 9 -10 117 15 117 27 0 9 -24 14 -45 9 -43 -9
-43 -9 -35 18 4 15 15 44 24 66 29 68 26 72 -51 54z"/>
<path d="M2436 3286 c-21 -90 -21 -113 -2 -97 8 7 17 23 20 36 10 37 24 30 47
-22 15 -34 22 -44 29 -33 5 7 4 24 -1 38 -7 18 -6 29 4 41 35 41 17 100 -30
102 -10 0 -25 2 -34 4 -12 2 -20 -14 -33 -69z m84 29 c13 -8 13 -18 -3 -39
-18 -25 -47 -10 -47 24 0 23 4 28 20 25 11 -2 25 -7 30 -10z"/>
<path d="M1553 3310 c-29 -12 -43 -40 -33 -66 6 -15 20 -23 50 -28 23 -4 43
-13 47 -22 7 -19 -13 -34 -38 -29 -10 2 -23 -3 -30 -11 -19 -23 63 -19 84 4
35 38 6 82 -52 82 -10 0 -24 7 -31 15 -10 13 -6 17 25 31 29 12 35 18 24 25
-17 10 -18 10 -46 -1z"/>
<path d="M2596 3311 c-3 -4 6 -13 19 -19 30 -14 30 -14 5 -87 -24 -69 -23 -65
-6 -65 8 0 18 10 21 23 4 12 14 41 22 64 14 39 18 42 44 36 17 -3 29 -1 29 5
0 8 -18 20 -35 22 -3 0 -23 7 -46 15 -49 18 -46 17 -53 6z"/>
<path d="M1404 3275 c5 -18 2 -25 -8 -25 -27 0 -27 -18 0 -82 38 -92 42 -95
99 -65 30 15 44 27 36 31 -6 4 -26 0 -43 -8 -25 -13 -33 -14 -40 -4 -14 22 -9
34 19 47 18 8 23 15 16 22 -7 7 -17 8 -29 1 -25 -12 -44 -5 -44 18 0 10 12 23
30 30 32 13 31 35 -2 27 -15 -4 -18 -1 -13 14 5 14 2 19 -10 19 -13 0 -16 -6
-11 -25z"/>
<path d="M2799 3150 c-61 -60 -73 -88 -25 -56 21 13 30 14 51 4 14 -6 25 -16
24 -22 -1 -6 -1 -22 0 -35 1 -19 4 -21 15 -12 8 7 14 20 14 29 -1 9 2 47 6 85
9 87 -3 88 -85 7z m58 -27 c-3 -3 -13 -3 -22 -1 -14 3 -14 5 2 25 18 22 18 22
21 2 2 -11 1 -23 -1 -26z"/>
<path d="M1246 3166 c-23 -22 -32 -38 -30 -56 1 -14 3 -30 3 -36 1 -6 13 -23
27 -37 34 -34 66 -32 121 6 36 25 40 32 28 43 -7 8 -17 23 -20 34 -7 23 -14
24 -37 6 -23 -17 -23 -26 2 -26 11 0 20 -6 20 -13 0 -18 -32 -47 -52 -47 -26
0 -68 40 -68 65 0 24 41 65 66 65 25 0 24 18 -2 23 -19 3 -34 -4 -58 -27z"/>
<path d="M3030 3096 l23 -25 -29 -38 c-46 -61 -57 -83 -40 -83 7 0 22 12 32
27 9 15 21 32 26 38 5 5 15 19 22 30 12 16 16 17 29 6 9 -7 24 -11 34 -9 12 2
3 13 -35 41 -62 44 -99 52 -62 13z"/>
<path d="M1101 3081 l-34 -28 47 -67 c26 -36 50 -66 54 -66 11 0 82 53 82 61
0 13 -14 11 -36 -6 -44 -33 -84 1 -43 36 28 24 17 37 -17 19 -22 -12 -27 -12
-34 0 -14 22 -13 26 15 44 14 9 23 21 20 26 -9 15 -17 12 -54 -19z"/>
<path d="M3118 2972 c-51 -63 -50 -100 3 -127 43 -23 84 1 133 78 31 46 -5 33
-52 -19 -43 -49 -65 -54 -89 -17 -13 20 -12 24 19 60 61 69 63 73 42 73 -11
-1 -36 -22 -56 -48z"/>
<path d="M927 2942 c-20 -21 -37 -41 -37 -45 0 -15 30 -6 40 13 14 27 40 25
41 -2 4 -60 8 -92 13 -114 4 -13 5 -24 3 -24 -2 0 -39 16 -83 34 -49 22 -83
31 -88 26 -11 -11 33 -109 65 -150 l20 -25 -6 38 c-8 47 12 71 53 63 23 -6 36
2 85 46 31 29 57 56 57 61 0 14 -19 7 -49 -19 -17 -14 -31 -22 -32 -17 0 4 -3
19 -5 33 -3 14 -9 45 -12 69 -4 24 -12 46 -17 48 -6 2 -27 -14 -48 -35z m-37
-172 c0 -19 -19 -20 -29 -1 -16 28 -14 33 9 21 11 -6 20 -15 20 -20z"/>
<path d="M3248 2842 l-58 -57 23 -26 c48 -56 108 -61 147 -12 30 38 26 83 -11
121 -17 18 -34 32 -38 31 -3 0 -32 -26 -63 -57z m94 -9 c37 -65 -41 -124 -93
-72 l-21 21 38 39 c21 21 43 39 49 39 6 0 18 -12 27 -27z"/>
<path d="M3385 2718 c-48 -28 -60 -87 -25 -131 44 -55 128 -38 151 31 25 76
-56 140 -126 100z m87 -35 c50 -45 -13 -125 -73 -93 -39 21 -41 78 -5 102 19
13 59 9 78 -9z"/>
<path d="M683 2667 c2 -6 12 -15 22 -21 10 -6 29 -20 42 -32 l24 -20 -66 0
c-36 0 -71 -6 -77 -12 -6 -6 -10 -13 -7 -15 2 -2 32 -23 67 -46 48 -32 66 -40
79 -32 16 8 14 11 -10 22 -15 7 -27 16 -27 21 0 4 -6 8 -14 8 -8 0 -16 6 -19
14 -4 9 3 13 21 14 107 1 113 2 110 18 -2 9 -12 22 -23 28 -11 6 -22 14 -25
17 -7 9 -73 43 -88 45 -7 1 -11 -3 -9 -9z"/>
<path d="M1742 2620 c3 -13 50 -15 343 -18 187 -1 351 0 365 4 23 5 23 6 6 16
-12 7 -146 11 -368 12 -305 1 -348 -1 -346 -14z"/>
<path d="M3550 2555 c-77 -28 -120 -51 -120 -62 0 -18 20 -16 63 7 40 22 49
12 17 -22 -33 -35 -26 -48 28 -49 40 0 44 -2 28 -12 -51 -33 -67 -50 -57 -60
8 -8 17 -5 33 9 13 11 42 33 66 49 62 41 47 60 -36 44 -35 -8 -54 7 -31 25 20
15 51 65 47 76 -2 4 -19 2 -38 -5z"/>
<path d="M567 2485 c-9 -20 -17 -41 -17 -48 0 -12 119 -77 140 -77 17 0 53 81
41 93 -8 8 -14 2 -22 -20 -10 -30 -39 -53 -39 -32 0 6 -4 7 -10 4 -13 -8 -13
21 0 46 15 27 -11 26 -28 -1 -13 -22 -20 -24 -40 -11 -11 7 -11 15 2 45 20 49
-4 50 -27 1z"/>
<path d="M512 2368 c-10 -13 -15 -40 -13 -66 0 -7 11 -16 24 -21 23 -9 50 0
75 26 8 8 19 12 26 10 18 -6 19 -33 1 -50 -17 -17 -20 -37 -6 -37 15 0 51 51
51 71 0 40 -54 64 -82 36 -7 -8 -23 -19 -35 -25 -18 -10 -22 -9 -26 8 -3 11 1
24 9 31 8 6 14 15 14 20 0 13 -26 11 -38 -3z"/>
<path d="M3543 2332 c-13 -2 -23 -8 -23 -13 0 -5 10 -9 23 -9 20 0 63 -20 43
-20 -5 0 -3 -7 5 -16 10 -13 10 -17 -2 -25 -8 -5 -10 -9 -6 -9 5 0 1 -7 -8
-16 -9 -9 -14 -19 -11 -22 7 -7 42 18 101 72 35 31 56 43 69 40 13 -4 17 -2
14 7 -3 10 -28 14 -94 14 -49 0 -99 -1 -111 -3z m110 -29 c8 -8 -25 -33 -35
-27 -5 3 -8 12 -8 20 0 14 31 20 43 7z"/>
<path d="M1660 2299 c-6 -11 -10 -30 -8 -42 3 -21 5 -20 36 13 38 41 40 50 7
50 -14 0 -29 -8 -35 -21z"/>
<path d="M2846 2291 c-9 -16 -12 -31 -9 -35 9 -9 45 -7 39 2 -3 5 4 16 15 25
26 23 24 37 -6 37 -17 0 -29 -9 -39 -29z"/>
<path d="M450 2210 c-9 -26 -10 -44 -4 -50 5 -5 42 -21 80 -34 l71 -24 16 49
c18 58 5 75 -19 24 -9 -19 -19 -35 -23 -35 -18 1 -30 19 -28 42 1 15 -2 27 -8
27 -5 1 -10 -4 -10 -10 0 -7 -8 -17 -17 -23 -28 -17 -43 5 -30 43 9 24 8 31
-2 31 -7 0 -19 -18 -26 -40z"/>
<path d="M1263 2230 c-46 -10 -79 -34 -108 -78 -61 -92 -35 -216 57 -276 33
-22 122 -30 151 -14 12 7 25 11 30 10 4 -1 7 3 7 8 0 6 5 10 10 10 5 0 9 -3 9
-7 -3 -21 3 -29 21 -29 11 0 20 5 21 11 1 5 2 47 4 93 3 77 2 82 -19 87 -32 6
-80 2 -88 -9 -11 -16 3 -36 27 -36 28 0 38 -31 19 -58 -29 -42 -117 -50 -168
-17 -54 35 -73 133 -39 193 33 58 119 85 175 56 40 -20 68 -18 68 6 0 38 -100
66 -177 50z"/>
<path d="M1899 2228 c-47 -18 -69 -48 -69 -95 0 -52 18 -73 98 -110 63 -30 72
-38 72 -70 0 -52 -59 -66 -127 -30 -31 16 -33 16 -43 -2 -32 -61 139 -96 193
-40 25 26 39 69 32 97 -9 35 -32 56 -102 91 -70 35 -77 43 -69 77 9 36 47 47
99 29 38 -13 43 -13 54 2 16 21 2 39 -38 48 -52 12 -74 12 -100 3z"/>
<path d="M2525 2231 c-47 -12 -75 -30 -85 -57 -25 -64 0 -107 83 -147 69 -32
90 -53 81 -80 -15 -48 -53 -57 -118 -29 l-44 20 -10 -22 c-9 -20 -6 -25 21
-41 39 -23 112 -27 153 -7 52 24 70 88 38 140 -14 25 -76 62 -101 62 -18 0
-63 48 -63 67 0 20 47 53 71 50 7 -2 29 -9 47 -16 36 -15 37 -15 46 15 5 17 1
24 -21 32 -46 17 -66 20 -98 13z"/>
<path d="M2785 2230 l-50 -5 -1 -180 -1 -180 81 -5 c113 -7 146 -2 146 21 0
22 5 21 -87 23 -39 1 -74 4 -76 6 -3 3 -7 28 -8 55 l-3 50 64 5 c57 4 65 8 65
25 0 18 -8 20 -62 23 l-63 3 0 54 0 55 68 0 c73 0 98 10 89 33 -6 17 -82 25
-162 17z"/>
<path d="M3160 2230 c-89 -16 -142 -79 -148 -175 -6 -93 30 -156 111 -190 49
-20 95 -19 139 4 35 17 37 17 41 0 3 -10 12 -16 23 -15 17 3 19 14 22 97 l3
94 -53 0 c-47 0 -53 -2 -56 -22 -3 -20 1 -23 27 -23 27 0 31 -4 31 -26 0 -81
-140 -95 -209 -21 -32 36 -36 132 -5 174 44 60 122 75 193 38 25 -12 28 -12
40 7 11 18 11 23 -5 32 -11 6 -21 11 -24 12 -3 0 -12 4 -20 7 -26 11 -74 14
-110 7z"/>
<path d="M849 2153 c-1 -149 2 -288 7 -292 2 -3 51 -5 109 -5 95 -1 104 1 109
19 8 28 -7 33 -94 31 l-77 -1 -2 57 -2 57 68 3 c60 3 68 5 68 23 0 17 -8 21
-65 25 l-65 5 -3 52 -3 52 83 3 c77 3 83 5 86 26 3 22 2 22 -107 22 l-111 0
-1 -77z"/>
<path d="M1547 2223 c-10 -18 -3 -363 7 -364 10 -1 175 0 204 1 13 0 17 39 5
41 -5 1 -42 2 -83 3 l-75 1 -3 58 -3 57 66 0 c63 0 66 1 63 23 -3 20 -9 22
-65 25 l-63 3 0 54 0 55 80 0 c79 0 80 0 80 25 l0 25 -104 0 c-58 0 -107 -3
-109 -7z"/>
<path d="M2112 2208 c3 -21 8 -23 78 -25 124 -2 115 0 98 -20 -38 -45 -188
-273 -188 -287 0 -9 8 -16 18 -17 21 -1 211 -1 233 0 17 1 34 29 24 39 -3 4
-46 6 -95 7 -49 0 -92 3 -95 7 -4 4 6 24 22 45 71 92 163 235 163 253 0 19 -7
20 -131 20 -130 0 -130 0 -127 -22z"/>
<path d="M3739 2215 c-3 -2 -16 -6 -29 -8 -50 -8 -120 -30 -126 -38 -10 -17
22 -19 69 -5 26 8 47 11 47 8 0 -4 -13 -20 -28 -37 -41 -43 -64 -82 -54 -89
15 -9 162 36 162 51 0 16 -4 16 -62 -2 -27 -8 -48 -12 -48 -8 0 3 17 26 38 52
49 58 54 68 44 75 -5 3 -11 4 -13 1z"/>
<path d="M564 2061 c-9 -42 -24 -47 -88 -29 -52 14 -76 14 -76 -2 0 -9 61 -32
68 -26 2 3 16 0 31 -6 48 -18 61 -17 73 5 6 12 10 22 8 22 -2 0 0 11 5 24 4
13 2 28 -4 34 -8 8 -13 2 -17 -22z"/>
<path d="M3750 2019 c-19 -4 -53 -10 -74 -13 -46 -8 -54 -12 -39 -27 7 -7 22
-7 49 0 68 19 70 12 15 -43 -53 -54 -60 -80 -18 -72 12 2 38 7 57 11 55 10 74
13 82 14 4 1 5 8 2 16 -4 8 -9 13 -13 11 -3 -2 -28 -7 -56 -10 l-49 -7 19 23
c11 12 30 31 43 41 12 10 27 27 32 37 12 23 -3 29 -50 19z"/>
<path d="M385 1948 c-3 -13 -7 -36 -8 -53 -2 -28 1 -30 43 -37 25 -3 64 -7 88
-7 40 -1 42 0 43 29 1 17 2 38 3 47 0 9 -5 18 -11 21 -8 2 -14 -5 -14 -17 -1
-12 -2 -27 -3 -33 0 -7 -11 -14 -23 -16 -23 -3 -27 4 -24 41 3 26 -18 20 -25
-8 -4 -17 -13 -25 -29 -25 -20 0 -22 4 -18 40 4 43 -13 56 -22 18z"/>
<path d="M369 1828 c0 -7 -2 -38 -5 -70 -6 -61 10 -88 21 -37 l7 30 68 -6 c44
-4 70 -2 75 4 8 14 -10 21 -71 25 -27 2 -55 4 -61 5 -7 1 -13 14 -13 31 0 28
-19 45 -21 18z"/>
<path d="M3770 1815 c-29 -20 -56 -29 -102 -34 -5 -1 -8 -5 -8 -11 0 -5 16
-10 35 -10 19 0 59 -11 90 -24 30 -14 55 -21 55 -16 0 13 -30 40 -45 40 -25 0
-22 25 7 42 29 18 38 38 16 37 -7 0 -29 -11 -48 -24z"/>
<path d="M2325 1730 c-14 -28 -14 -30 3 -30 10 0 26 14 35 30 18 29 18 30 -2
30 -13 0 -26 -12 -36 -30z"/>
<path d="M3687 1671 c37 -33 35 -62 -3 -80 -14 -6 -23 -15 -20 -20 5 -8 27 -3
136 33 49 16 44 36 -15 59 -27 10 -58 23 -67 28 -10 5 -28 9 -40 9 -21 0 -21
-2 9 -29z m90 -37 c7 -22 -26 -24 -38 -3 -9 18 -8 20 12 17 12 -2 24 -8 26
-14z"/>
<path d="M1175 1668 c-2 -7 -3 -76 -2 -153 2 -133 3 -140 22 -140 18 0 20 8
23 71 3 67 4 71 25 67 15 -3 35 -27 60 -72 36 -64 50 -74 84 -62 2 1 -5 14
-15 30 -9 16 -29 50 -44 76 l-28 47 20 36 c11 21 29 52 40 71 22 40 20 46 -12
38 -13 -4 -29 -20 -37 -39 -8 -18 -17 -35 -20 -38 -3 -3 -11 -14 -17 -24 -5
-11 -20 -21 -32 -22 -19 -3 -21 1 -24 59 -2 50 -6 62 -21 65 -9 2 -19 -2 -22
-10z"/>
<path d="M1439 1623 c-2 -159 4 -199 35 -228 28 -25 106 -31 145 -10 48 24 61
66 61 190 0 104 0 105 -24 105 -24 0 -24 0 -25 -111 0 -102 -2 -114 -23 -136
-18 -19 -30 -23 -56 -19 -59 7 -66 24 -72 149 -4 96 -7 112 -22 115 -15 3 -18
-5 -19 -55z"/>
<path d="M1759 1673 c-1 -4 -3 -72 -5 -150 -4 -141 -3 -143 19 -148 27 -6 154
-1 162 7 16 15 -26 33 -76 32 l-54 -1 -5 131 c-4 114 -7 131 -22 134 -10 2
-19 0 -19 -5z"/>
<path d="M1920 1660 c0 -17 7 -20 50 -20 l50 0 0 -130 c0 -109 3 -132 15 -137
9 -3 19 -3 22 1 3 3 6 63 7 133 l1 128 50 5 c37 4 51 9 53 23 3 15 -8 17 -122
17 -119 0 -126 -1 -126 -20z"/>
<path d="M2209 1678 c-1 -2 -2 -52 -3 -113 -2 -116 5 -141 48 -177 29 -24 102
-23 142 1 43 26 54 67 51 186 -2 95 -3 100 -24 103 -23 3 -23 2 -23 -112 0
-112 -1 -115 -26 -135 -15 -12 -37 -21 -49 -21 -12 0 -34 9 -49 21 -25 20 -26
23 -26 135 0 107 -1 114 -20 114 -11 0 -21 -1 -21 -2z"/>
<path d="M2520 1531 c0 -127 2 -150 16 -155 27 -10 34 3 34 63 0 54 1 57 23
55 12 -1 27 -3 34 -3 6 -1 15 -11 19 -23 14 -46 55 -99 72 -96 21 4 17 32 -8
68 -31 44 -33 66 -9 89 34 31 32 96 -4 127 -24 21 -38 24 -103 24 l-74 0 0
-149z m156 66 c5 -26 3 -34 -17 -47 -12 -8 -38 -16 -56 -16 l-33 -1 0 53 c0
47 2 53 23 56 42 7 75 -11 83 -45z"/>
<path d="M2874 1672 c-9 -6 -26 -39 -22 -45 1 -1 -4 -12 -11 -25 -7 -13 -14
-31 -16 -40 -2 -9 -17 -54 -33 -99 -17 -45 -28 -84 -24 -87 15 -16 35 -2 52
39 l19 45 55 0 54 0 14 -42 c10 -29 20 -42 36 -45 13 -1 22 2 22 10 0 17 -91
269 -103 285 -11 14 -27 15 -43 4z m40 -106 c9 -27 16 -53 16 -57 0 -9 -70
-17 -75 -8 -3 3 4 30 14 60 11 29 17 58 14 64 -4 7 -3 7 4 0 6 -5 18 -32 27
-59z"/>
<path d="M360 1645 c0 -12 16 -15 85 -15 69 0 85 3 85 15 0 12 -16 15 -85 15
-69 0 -85 -3 -85 -15z"/>
<path d="M387 1582 c-40 -5 -28 -27 15 -26 35 1 35 0 34 -40 -1 -39 -3 -41
-34 -44 -44 -4 -36 -27 9 -25 115 5 142 10 134 24 -4 5 -22 9 -41 9 -34 0 -36
4 -36 45 0 31 3 35 25 35 29 0 53 15 39 24 -11 6 -87 5 -145 -2z"/>
<path d="M3667 1533 c-3 -4 -8 -29 -11 -55 -6 -40 -4 -47 9 -42 9 4 15 19 15
41 0 28 3 33 18 29 43 -11 131 -16 136 -7 9 14 -2 18 -69 25 -33 4 -67 9 -77
12 -9 3 -18 1 -21 -3z"/>
</g>
</svg>
